<svg width="36" height="27" viewBox="0 0 36 27" fill="none" xmlns="http://www.w3.org/2000/svg">
<path d="M33.9882 19.3294C34.131 18.713 34.2043 18.0826 34.2067 17.45C34.2067 15.0041 33.1258 12.7344 31.2861 10.8665C31.7268 9.68371 31.8763 8.54308 31.493 7.65123L33.3635 6.05893L35.2799 5.94027C35.3805 5.93399 35.479 5.90797 35.5696 5.86369C35.6602 5.81942 35.7411 5.75775 35.8079 5.68222C35.8746 5.60669 35.9258 5.51878 35.9585 5.4235C35.9912 5.32821 36.0048 5.22743 35.9985 5.1269C35.9922 5.02637 35.9662 4.92806 35.9218 4.83758C35.8775 4.74711 35.8157 4.66624 35.7401 4.5996C35.6645 4.53296 35.5764 4.48184 35.481 4.44918C35.3856 4.41651 35.2847 4.40293 35.184 4.40921L34.0342 4.47811L34.2833 3.37575C34.3286 3.17779 34.2932 2.97 34.185 2.79808C34.0768 2.62616 33.9047 2.5042 33.7065 2.45903C33.5083 2.41385 33.3002 2.44917 33.128 2.5572C32.9559 2.66523 32.8338 2.83713 32.7885 3.03509L32.3669 4.88767L30.4505 6.51825C29.0132 5.71827 26.6177 6.02448 24.4982 6.71346C24.6092 6.11704 24.5494 5.50143 24.3257 4.93743L26.1463 3.40637L28.0052 3.28771C28.1184 3.30491 28.2341 3.29653 28.3437 3.26322C28.4533 3.2299 28.554 3.17248 28.6384 3.09518C28.7228 3.01788 28.7889 2.92267 28.8316 2.81654C28.8743 2.71041 28.8927 2.59606 28.8854 2.48191C28.8781 2.36775 28.8452 2.25668 28.7893 2.15687C28.7333 2.05706 28.6556 1.97105 28.562 1.90515C28.4684 1.83925 28.3612 1.79514 28.2482 1.77607C28.1353 1.75699 28.0195 1.76344 27.9094 1.79493L26.8094 1.85234L27.0547 0.772947C27.0564 0.598271 26.9982 0.42827 26.8898 0.291165C26.7814 0.15406 26.6293 0.0580986 26.4588 0.019211C26.2883 -0.0196766 26.1095 0.000848639 25.9523 0.0773797C25.7951 0.153911 25.6688 0.281844 25.5944 0.439942L25.1804 2.25425L23.3215 3.83507C22.095 3.13843 20.2553 3.33364 18.7911 3.66665C16.8364 4.11448 14.828 4.99484 13.8085 5.85224C13.6066 6.01269 13.417 6.18797 13.2412 6.37663C6.52618 7.81582 1.62019 12.2329 1.62019 17.45C1.6239 18.0828 1.69846 18.7132 1.84249 19.3294C1.28545 19.4422 0.789985 19.7571 0.451687 20.2132C0.113389 20.6694 -0.043773 21.2345 0.0105203 21.7995C0.0648136 22.3645 0.326715 22.8895 0.7457 23.273C1.16468 23.6566 1.71106 23.8716 2.27943 23.8766H4.11918C4.09131 24.0937 4.10169 24.3139 4.14984 24.5273L4.32232 25.2929C4.44041 25.7703 4.71208 26.1958 5.09564 26.5041C5.47919 26.8125 5.95346 26.9867 6.44569 27H29.3697C29.8629 26.9867 30.3381 26.8121 30.7224 26.503C31.1067 26.1939 31.3787 25.7675 31.4969 25.289L31.6694 24.5235C31.7175 24.3101 31.7279 24.0898 31.7 23.8728H33.5398C34.1091 23.8706 34.6573 23.6575 35.0784 23.2748C35.4995 22.8922 35.7635 22.3671 35.8193 21.8013C35.8751 21.2355 35.7187 20.6691 35.3805 20.2118C35.0422 19.7545 34.5461 19.4387 33.9882 19.3256V19.3294ZM28.3425 7.57085C29.109 7.57085 29.6993 7.72013 29.9944 8.07227C31.0139 9.29712 28.3693 13.6798 26.3686 15.3448C25.628 15.9576 24.6743 16.2521 23.7166 16.1639C22.7589 16.0756 21.8753 15.6118 21.2595 14.874C20.6463 14.1339 20.352 13.1812 20.4411 12.2248C20.5302 11.2683 20.9954 10.3862 21.7347 9.77175C23.0264 8.67321 26.2574 7.57085 28.3425 7.57085ZM19.1438 5.15943C19.8142 4.99632 20.5006 4.90775 21.1905 4.89533C21.9839 4.89533 22.5665 5.05609 22.8309 5.37378C22.9279 5.53912 22.9908 5.72218 23.0158 5.91217C23.0408 6.10215 23.0275 6.29521 22.9766 6.47997C21.3116 6.09296 19.6075 5.89902 17.8981 5.902C17.502 5.902 17.1111 5.91348 16.7253 5.93645C17.507 5.60686 18.3163 5.34685 19.1438 5.15943ZM17.9249 7.43306C19.2717 7.43352 20.6154 7.56168 21.9379 7.81582C21.5185 8.03506 21.1196 8.29126 20.7459 8.58135C19.7459 9.46936 19.1302 10.7104 19.0286 12.0429C18.9271 13.3754 19.3475 14.6953 20.2014 15.7242C21.0553 16.7531 22.2759 17.4108 23.6058 17.5585C24.9358 17.7062 26.2712 17.3325 27.3306 16.5161C28.65 15.3187 29.7568 13.9067 30.6038 12.3401C31.8992 13.7314 32.636 15.5506 32.6735 17.45C32.6741 18.0366 32.5981 18.6208 32.4474 19.1878H3.38328C3.23134 18.621 3.15403 18.0368 3.15331 17.45C3.15331 11.9267 9.77639 7.43306 17.9134 7.43306H17.9249ZM30.1899 24.1943L30.0212 24.9599C29.9809 25.0996 29.8987 25.2237 29.7856 25.3154C29.6726 25.4071 29.5341 25.462 29.3888 25.4728H6.45719C6.31261 25.4613 6.17498 25.406 6.06266 25.3144C5.95035 25.2227 5.8687 25.0991 5.82861 24.9599L5.65613 24.1943C5.64493 24.1615 5.64119 24.1267 5.64516 24.0922C5.64914 24.0578 5.66074 24.0247 5.67913 23.9953C5.7002 23.976 5.72504 23.9613 5.75208 23.9521C5.77913 23.9429 5.80779 23.9393 5.83627 23.9417H29.9829C30.0114 23.9398 30.0399 23.9435 30.0669 23.9527C30.0939 23.9619 30.1187 23.9764 30.1401 23.9953C30.1582 24.0248 30.1702 24.0576 30.1755 24.0917C30.1807 24.1259 30.1791 24.1608 30.1707 24.1943H30.1899ZM33.5589 22.3456H2.27943C2.07613 22.3456 1.88115 22.2649 1.73739 22.1214C1.59364 21.9778 1.51287 21.7831 1.51287 21.58C1.51287 21.377 1.59364 21.1823 1.73739 21.0387C1.88115 20.8952 2.07613 20.8145 2.27943 20.8145H33.5283C33.7316 20.8145 33.9265 20.8952 34.0703 21.0387C34.2141 21.1823 34.2948 21.377 34.2948 21.58C34.2948 21.7831 34.2141 21.9778 34.0703 22.1214C33.9265 22.2649 33.7316 22.3456 33.5283 22.3456H33.5589Z" fill="#DB1516"/>
</svg>
