<svg width="33" height="31" viewBox="0 0 33 31" fill="none" xmlns="http://www.w3.org/2000/svg">
<path d="M4.795 4.99883C4.71192 5.02521 4.63832 5.07634 4.58352 5.14574C4.52873 5.21515 4.49522 5.2997 4.48722 5.38869C4.47921 5.47769 4.49709 5.56712 4.53858 5.64567C4.58007 5.72421 4.64331 5.78833 4.72029 5.82992C4.79727 5.8715 4.88452 5.88867 4.971 5.87925C5.05748 5.86984 5.13929 5.83426 5.20608 5.77702C5.27287 5.71978 5.32163 5.64346 5.34618 5.55773C5.37074 5.47199 5.36999 5.38069 5.34402 5.2954C5.30947 5.18126 5.23222 5.0859 5.12926 5.03028C5.02631 4.97466 4.90607 4.96335 4.795 4.99883Z" fill="#DB1516"/>
<path d="M1.78267 8.28625C1.89305 9.25011 2.39229 10.1606 3.19164 10.8212C3.31017 10.918 3.45727 10.9703 3.60863 10.9695C3.70849 10.9692 3.80704 10.9461 3.89721 10.902C4.00438 10.8514 4.09526 10.7703 4.15916 10.6684C4.22306 10.5665 4.25732 10.4479 4.25792 10.3267V8.86679C4.47664 8.9326 4.69869 8.98606 4.92309 9.02694V12.482C4.92193 14.2582 5.43609 15.9945 6.39987 17.4689L8.59377 23.2706L8.22872 30.0361H7.83193C7.70756 30.0361 7.58828 30.0869 7.50034 30.1773C7.4124 30.2677 7.36299 30.3903 7.36299 30.5181C7.36299 30.6459 7.4124 30.7685 7.50034 30.8588C7.58828 30.9492 7.70756 31 7.83193 31H10.7826L11.3107 23.3373L14.2325 30.0361H13.9692C13.8448 30.0361 13.7256 30.0869 13.6376 30.1773C13.5497 30.2677 13.5003 30.3903 13.5003 30.5181C13.5003 30.6459 13.5497 30.7685 13.6376 30.8588C13.7256 30.9492 13.8448 31 13.9692 31H17.3773L15.1661 25.8367C14.6899 24.7245 14.5117 23.8904 14.4446 23.3862C14.4237 23.2221 14.4148 23.0565 14.4179 22.891C14.42 22.762 14.4292 22.6333 14.4453 22.5054C14.6306 22.2449 14.7903 21.9663 14.9222 21.6735C16.0534 21.9501 17.29 22.0843 18.691 22.0843C19.3105 22.0852 19.929 22.0329 20.5401 21.9278C20.711 22.4372 20.9765 22.7531 21.5501 23.2001C21.7816 23.3753 21.9717 23.6019 22.1064 23.863C22.241 24.1241 22.3167 24.413 22.3278 24.7082L20.9368 30.0361H20.504C20.3796 30.0361 20.2603 30.0869 20.1724 30.1773C20.0844 30.2677 20.035 30.3903 20.035 30.5181C20.035 30.6459 20.0844 30.7685 20.1724 30.8588C20.2603 30.9492 20.3796 31 20.504 31H22.9569L24.083 27.0304V30.0361H23.9885C23.8642 30.0361 23.7449 30.0869 23.6569 30.1773C23.569 30.2677 23.5196 30.3903 23.5196 30.5181C23.5196 30.6459 23.569 30.7685 23.6569 30.8588C23.7449 30.9492 23.8642 31 23.9885 31H26.4371V26.3446L26.8627 22.6656C26.9645 21.9382 26.6723 21.6157 26.4883 21.4874C26.0425 21.1783 25.8181 20.6429 25.8051 19.8563L25.9782 19.3128C26.2729 19.9451 26.7354 20.479 27.3125 20.8528C27.8896 21.2267 28.5577 21.4254 29.2399 21.4259H30.5969C31.2342 21.4259 31.8455 21.1657 32.2961 20.7025C32.7468 20.2394 33 19.6112 33 18.9562V18.4698H29.7781C29.5516 18.4708 29.3272 18.4259 29.1177 18.3378C28.9081 18.2496 28.7175 18.1199 28.5567 17.956C28.3959 17.7922 28.2681 17.5974 28.1806 17.3828C28.0931 17.1681 28.0476 16.9379 28.0466 16.7052C28.0477 16.0587 27.9249 15.4184 27.6852 14.8207C27.4454 14.223 27.0934 13.6798 26.6493 13.222C26.2052 12.7642 25.6776 12.4008 25.0968 12.1526C24.516 11.9044 23.8932 11.7762 23.2642 11.7754H20.504C20.3796 11.7754 20.2603 11.8262 20.1724 11.9166C20.0844 12.007 20.035 12.1295 20.035 12.2574C20.035 12.3852 20.0844 12.5078 20.1724 12.5981C20.2603 12.6885 20.3796 12.7393 20.504 12.7393H21.9634C22.9162 12.7406 23.831 13.1226 24.5146 13.8046C25.1981 14.4866 25.5968 15.4152 25.6262 16.3938V16.6325C25.62 16.8264 25.5995 17.0195 25.5649 17.2101L25.4314 17.936L24.8687 19.7021V19.7762C24.8687 20.9202 25.2294 21.7573 25.9371 22.2645C25.9536 22.3521 25.9536 22.4422 25.9371 22.5299L25.5043 26.2571V26.2852V30.0361H25.0259V24.0832C25.026 23.9555 25.018 23.828 25.0021 23.7013L24.9978 23.6643C24.9978 23.6569 24.9978 23.6494 24.9942 23.6428V23.6272C24.9906 23.6027 24.9863 23.579 24.9827 23.5583C24.9791 23.5375 24.9776 23.5301 24.9755 23.5167L24.9704 23.4893C24.9632 23.4552 24.956 23.4226 24.9495 23.3929C24.943 23.3633 24.9322 23.3225 24.9228 23.2884C24.9134 23.2543 24.9098 23.2417 24.9019 23.2142C24.8939 23.1868 24.886 23.1616 24.8773 23.1364C24.8636 23.0941 24.8492 23.0533 24.8355 23.0163L24.8203 22.9762L24.8138 22.9607C24.7973 22.9184 24.7792 22.8769 24.7633 22.8428C24.7475 22.8087 24.7302 22.7686 24.7107 22.7308C24.6912 22.693 24.671 22.6567 24.6501 22.6181C24.5759 22.486 24.4915 22.3603 24.3976 22.2422L24.329 22.1599L24.3088 22.1377C24.2836 22.1095 24.2583 22.0821 24.2324 22.0554C24.2064 22.0287 24.1833 22.005 24.1602 21.9812L24.1018 21.9264C24.0787 21.9056 24.0549 21.8848 24.0296 21.8663C24.0044 21.8478 24.0022 21.8426 23.9878 21.8307C23.9604 21.8077 23.9315 21.7862 23.902 21.764C23.8724 21.7417 23.8601 21.7329 23.8406 21.7158L23.7988 21.6795L23.775 21.658L23.7418 21.6268L23.7281 21.6127L23.687 21.5712L23.6401 21.5193C23.5888 21.4605 23.5406 21.3989 23.4958 21.3347C23.485 21.3199 23.4741 21.3043 23.4619 21.2858C23.4222 21.2272 23.3854 21.1679 23.3529 21.1086L23.3436 21.0923C23.3342 21.0767 23.3255 21.0611 23.3169 21.0448L23.3118 21.0344C23.2996 21.0129 23.288 20.9914 23.2772 20.9692L23.2729 20.9603C23.2599 20.9358 23.2476 20.9113 23.2368 20.8861L23.226 20.8617C23.2173 20.8446 23.2094 20.8268 23.2014 20.8098L23.1971 20.7994C23.1884 20.7801 23.1798 20.7608 23.1719 20.7416L23.1581 20.7089C23.1488 20.6874 23.1401 20.6652 23.1286 20.6348C23.117 20.6044 23.1098 20.5888 23.1019 20.5658L23.0954 20.548C23.0918 20.5384 23.0874 20.5288 23.0846 20.5191L23.0802 20.508L23.0608 20.4539V20.445C23.0521 20.419 23.0427 20.3938 23.0326 20.3634C23.0124 20.3011 22.9929 20.2381 22.9735 20.1729L22.9475 20.0824C22.928 20.0083 22.91 19.9401 22.8927 19.8696C22.8833 19.8303 22.8746 19.7955 22.8667 19.7555C22.8256 19.5708 22.7902 19.3773 22.7614 19.1816V19.1742L22.7549 19.1304L22.7498 19.0941C22.7462 19.0704 22.7433 19.0474 22.7404 19.0251L22.7311 18.951C22.7267 18.9169 22.7231 18.8843 22.7195 18.8524C22.7022 18.6959 22.6892 18.5417 22.6806 18.3831C22.6806 18.3608 22.6806 18.3401 22.6769 18.3208V18.2807C22.6742 18.1909 22.6499 18.1032 22.6061 18.0253C22.5624 17.9475 22.5006 17.882 22.4262 17.8346C22.3519 17.7873 22.2673 17.7596 22.18 17.754C22.0927 17.7484 22.0054 17.7651 21.9259 17.8025C21.3192 18.0865 19.5712 18.6181 18.3909 18.6181C16.425 18.6181 15.5051 18.1161 15.0102 17.847C14.9064 17.7897 14.787 17.7696 14.6709 17.7898C14.5547 17.8101 14.4484 17.8696 14.3689 17.959C14.3069 18.0304 14.2639 18.1171 14.244 18.2106C14.224 18.304 14.2278 18.4012 14.2549 18.4928C14.4776 19.2554 14.4746 20.0689 14.2462 20.8298C14.2231 20.9039 14.2022 20.964 14.1835 21.0159C14.0507 21.3756 13.8669 21.7131 13.6381 22.0176L13.5659 22.1132L13.5464 22.2333C13.5129 22.444 13.4941 22.6568 13.4902 22.8702C13.4862 23.0846 13.4981 23.299 13.5255 23.5115C13.5977 24.078 13.7968 25.0085 14.3191 26.223L15.9402 30.0361H15.2606L11.2277 20.7912L9.65139 16.9514C9.53262 16.6722 9.35552 16.4234 9.13268 16.2225C8.94375 16.0475 8.7927 15.8336 8.6893 15.5948C8.58591 15.356 8.53246 15.0975 8.53244 14.8361V13.9612C8.53244 13.8334 8.48304 13.7108 8.39509 13.6204C8.30715 13.53 8.18788 13.4792 8.06351 13.4792C7.93914 13.4792 7.81986 13.53 7.73192 13.6204C7.64398 13.7108 7.59457 13.8334 7.59457 13.9612V14.7716C7.59457 15.5982 7.91345 16.4027 8.51729 16.9506C8.63809 17.06 8.73349 17.1958 8.79649 17.348L9.59873 19.3024C8.4568 18.5929 7.51284 17.5919 6.85854 16.3967C6.20423 15.2015 5.86182 13.8527 5.86457 12.4813V9.12036C5.90713 9.12036 5.94897 9.12036 5.99154 9.12036H6.02184C6.22889 9.12036 6.43306 9.10702 6.63001 9.08552C7.29913 9.01205 7.92611 8.71423 8.41413 8.23806C8.46437 8.18951 8.5036 8.13021 8.52906 8.06434C8.55452 7.99848 8.56558 7.92767 8.56145 7.85693C8.55731 7.78618 8.5381 7.71724 8.50516 7.65497C8.47222 7.59271 8.42637 7.53865 8.37084 7.49663C8.28074 7.43032 8.17082 7.39867 8.06031 7.40721C7.9498 7.41575 7.84572 7.46393 7.76628 7.54334C7.42856 7.87203 6.99511 8.07757 6.53262 8.12833C6.36597 8.14686 6.1921 8.1565 6.01679 8.15798C5.06589 8.16322 4.13184 7.90009 3.31645 7.39728L3.20535 7.32832H1.95005C1.686 7.32839 1.43244 7.22219 1.24365 7.03247C1.05487 6.84275 0.94588 6.5846 0.940033 6.3133C0.936413 6.23613 0.952847 6.15936 0.987648 6.09087C1.03667 5.99741 1.11802 5.92624 1.21562 5.89143L5.43315 4.20171C5.93729 3.99911 6.47394 3.8955 7.01526 3.89624C7.04412 3.89624 7.07297 3.89624 7.09895 3.89624C7.35919 3.90885 7.61337 3.98132 7.84275 4.10829L7.87305 4.12386L8.20347 4.24545L8.24675 4.25213C8.53226 4.30188 8.80927 4.39378 9.06919 4.52497C9.56266 4.77039 9.86927 5.3183 10.0323 5.70311C9.63696 5.81136 9.02663 5.90552 8.53533 5.66159C8.28045 5.53764 8.04369 5.37767 7.83193 5.18633C7.73869 5.10496 7.61822 5.06426 7.49619 5.07289C7.37417 5.08152 7.26025 5.13881 7.17875 5.23254C7.09724 5.32627 7.05459 5.44901 7.0599 5.5746C7.06521 5.70018 7.11805 5.81867 7.20716 5.90478C7.48343 6.15656 7.79225 6.36789 8.12483 6.53277C8.47401 6.69969 8.85508 6.7843 9.24017 6.78041L9.89884 8.89942L10.5359 10.6321C10.7665 11.2516 11.1741 11.7849 11.7051 12.162C12.2361 12.539 12.8657 12.742 13.5111 12.7445H17.9119C18.0362 12.7445 18.1555 12.6937 18.2434 12.6033C18.3314 12.5129 18.3808 12.3904 18.3808 12.2625C18.3808 12.1347 18.3314 12.0122 18.2434 11.9218C18.1555 11.8314 18.0362 11.7806 17.9119 11.7806H13.5111C13.056 11.7789 12.612 11.6357 12.2376 11.3698C11.8632 11.104 11.5758 10.7279 11.4131 10.2911L10.7884 8.59395L10.1874 6.66029C10.4047 6.60689 10.6173 6.53497 10.823 6.44528L11.1837 6.27994L11.0863 5.88698C11.0697 5.82025 10.6701 4.25583 9.47536 3.66269C9.43352 3.64193 9.39095 3.62117 9.34839 3.60263C9.55842 3.25465 9.8454 2.96252 10.186 2.74999C10.4239 2.60159 10.6901 2.5078 10.9666 2.47504C11.243 2.44228 11.5231 2.47132 11.7876 2.56018C12.0497 2.64849 12.2922 2.78921 12.5012 2.97422C12.7102 3.15923 12.8815 3.3849 13.0054 3.63822C13.2167 4.06899 13.2939 4.57168 13.1157 5.20338C13.0928 5.2675 13.083 5.33576 13.0867 5.40395C13.0904 5.47214 13.1077 5.53883 13.1375 5.5999C13.1672 5.66097 13.2088 5.71514 13.2597 5.75906C13.3106 5.80299 13.3697 5.83574 13.4334 5.85531C13.4971 5.87487 13.564 5.88084 13.63 5.87283C13.696 5.86483 13.7597 5.84302 13.8172 5.80876C13.8747 5.7745 13.9247 5.72851 13.9643 5.67361C14.0038 5.61872 14.032 5.55609 14.0471 5.48957L14.081 5.37465C14.2457 4.86452 14.3109 4.32603 14.2728 3.78998C14.2347 3.25394 14.0942 2.73087 13.8592 2.25072C13.6242 1.77057 13.2993 1.34277 12.9032 0.991803C12.5072 0.640834 12.0476 0.373591 11.5509 0.205369C11.0542 0.0371469 10.5301 -0.0287502 10.0086 0.0114494C9.48709 0.0516489 8.97841 0.197156 8.51168 0.439642C8.04495 0.682127 7.62934 1.01683 7.28863 1.42459C6.94792 1.83235 6.68881 2.30517 6.52612 2.81597C6.51097 2.86417 6.49727 2.91236 6.48356 2.96426C6.00589 3.01325 5.53696 3.12899 5.08974 3.30828L0.897468 4.9854C0.635152 5.08094 0.408051 5.25761 0.247356 5.49112C0.0866603 5.72464 0.000252616 6.00356 0 6.28958C0.000500804 6.79117 0.1838 7.27437 0.513772 7.64396C0.843745 8.01354 1.29645 8.24269 1.78267 8.28625ZM25.5028 13.4904L25.4927 13.4785C25.9916 13.8428 26.3986 14.3243 26.6797 14.883C26.9608 15.4417 27.1079 16.0614 27.1087 16.6904C27.1087 17.0506 27.1778 17.4074 27.3119 17.7402C27.4461 18.073 27.6427 18.3754 27.8906 18.6302C28.1384 18.8849 28.4327 19.087 28.7566 19.2248C29.0804 19.3627 29.4275 19.4337 29.7781 19.4337H31.9857C31.8871 19.7319 31.7001 19.991 31.4511 20.1746C31.2021 20.3582 30.9034 20.4572 30.5969 20.4576H29.2413C28.5313 20.4568 27.8506 20.1666 27.3485 19.6506C26.8465 19.1347 26.5641 18.4351 26.5633 17.7054V16.6511C26.5979 15.5002 26.2218 14.376 25.5057 13.4904H25.5028ZM22.4403 21.4237C22.4562 21.4541 22.4713 21.4845 22.4879 21.5141C22.5045 21.5438 22.5182 21.5697 22.5341 21.5964C22.5796 21.6787 22.6308 21.761 22.6834 21.8381C22.7008 21.8641 22.7181 21.8908 22.7332 21.9123C22.7965 22.0028 22.865 22.0895 22.9381 22.1718L22.9446 22.1799C22.9648 22.2014 22.9843 22.2237 23.0052 22.2452L23.0723 22.3149L23.0882 22.3297L23.1517 22.3905C23.1627 22.401 23.1742 22.4109 23.1863 22.4202C23.2043 22.4365 23.2224 22.4528 23.2418 22.4683C23.275 22.4965 23.3104 22.524 23.3457 22.5499C23.3602 22.561 23.3746 22.5714 23.3883 22.5833L23.4359 22.6233C23.4484 22.6326 23.4602 22.6427 23.4713 22.6537L23.4777 22.6596C23.4878 22.6685 23.4972 22.6767 23.5095 22.6893C23.5218 22.7019 23.5376 22.7167 23.5506 22.7308L23.5571 22.7375C23.5737 22.7538 23.5888 22.7701 23.6062 22.7894L23.6249 22.8109C23.6408 22.8287 23.6552 22.8465 23.6653 22.8591C23.7264 22.9369 23.7817 23.0195 23.8305 23.106C23.845 23.1312 23.8587 23.1564 23.8688 23.1801C23.8789 23.2038 23.8926 23.2298 23.9063 23.2602C23.92 23.2906 23.9279 23.3091 23.938 23.3343L23.9488 23.3618C23.9597 23.3907 23.9705 23.4211 23.9799 23.4515L23.9871 23.473C23.9871 23.4811 23.9921 23.49 23.995 23.4982V23.5093L24.0058 23.5456L24.0102 23.5627C24.0159 23.5835 24.021 23.6042 24.0268 23.6294C24.0325 23.6546 24.0354 23.6665 24.039 23.6858L24.0448 23.7154L22.2549 30.0361H21.9108L23.2721 24.832V24.772C23.2707 24.3174 23.166 23.8695 22.9664 23.4639C22.7667 23.0583 22.4776 22.7062 22.1222 22.4357C21.7434 22.1392 21.5753 21.9649 21.4729 21.7291C21.7946 21.6402 22.1186 21.5393 22.4432 21.4229L22.4403 21.4237ZM15.3132 19.063C15.9568 19.3225 16.9278 19.582 18.3815 19.582C19.4932 19.582 20.9116 19.2031 21.7723 18.8954C21.7723 18.9169 21.7773 18.9391 21.7795 18.9614C21.7795 18.997 21.7874 19.0355 21.7917 19.0696L21.8033 19.1571C21.8069 19.1853 21.8105 19.2149 21.8148 19.2431L21.8184 19.2698C21.8184 19.2913 21.8242 19.3128 21.8278 19.3343C21.8603 19.5523 21.9 19.7673 21.9461 19.9764C21.9555 20.0187 21.9649 20.0602 21.9757 20.1039C21.9952 20.1855 22.0161 20.2678 22.0385 20.3493C22.0486 20.3857 22.0594 20.4235 22.0695 20.4568C22.0796 20.4902 22.0839 20.5036 22.0904 20.5265C20.9985 20.9192 19.85 21.1197 18.6932 21.1197C17.4025 21.1197 16.2663 21.0003 15.2303 20.7556C15.3535 20.2007 15.3816 19.6278 15.3132 19.063ZM9.60161 20.4101L10.1658 20.7126L10.4984 21.4748L9.90895 30.0361H9.16803L9.54173 23.1156L8.14936 19.4337C8.60065 19.8082 9.08714 20.1355 9.60161 20.4109V20.4101ZM2.94779 8.29367C3.06226 8.36138 3.18755 8.42885 3.32366 8.49608V9.60822C3.01878 9.23184 2.81529 8.77985 2.73353 8.29737L2.94779 8.29367ZM8.93573 1.30716C9.46731 1.03112 10.0662 0.921964 10.6577 0.993291C11.2493 1.06462 11.8073 1.31328 12.2623 1.70827C12.2031 1.68381 12.1425 1.66082 12.0812 1.64006C11.6902 1.50716 11.2759 1.4628 10.8667 1.51002C10.4575 1.55725 10.0631 1.69494 9.71055 1.91365C9.16954 2.25116 8.72637 2.73145 8.42711 3.30458L8.2482 3.23933C8.00284 3.11011 7.73954 3.02058 7.4676 2.9739C7.73625 2.24899 8.25994 1.65416 8.93501 1.30716H8.93573Z" fill="#DB1516"/>
</svg>
