<svg width="26" height="26" viewBox="0 0 26 26" fill="none" xmlns="http://www.w3.org/2000/svg">
<path fill-rule="evenodd" clip-rule="evenodd" d="M15.2344 21.6329C14.5742 21.6329 13.8633 21.6329 13.2031 21.5821C12.6953 21.5821 12.1875 21.5821 11.7813 21.5821C10.1055 21.5821 8.42969 20.8204 6.95703 19.4493C5.63672 18.1797 4.67188 16.5039 4.31641 14.8789C3.96094 13.6094 4.0625 12.2383 4.11328 10.9688C4.16406 10.2579 4.21484 9.5977 4.16406 8.98832C3.96094 9.5977 3.60547 9.95316 3.25 10.0547C2.89453 10.2071 2.53906 10.1055 2.28516 9.80082C1.82813 9.29301 1.92969 8.32816 2.53906 7.26176L1.01563 7.21098C0.914063 7.21098 0.8125 7.1602 0.761719 7.10941C0.660156 7.00785 0.660156 6.90629 0.660156 6.80473C0.710938 5.94145 1.72656 5.5352 2.53906 5.43363C2.69141 5.38285 2.74219 5.38285 2.79297 4.9766C2.79297 4.62113 2.84375 4.1641 3.25 3.70707C4.01172 2.79301 5.17969 2.43754 6.29688 2.79301C7.66797 3.19926 8.68359 4.51957 8.9375 6.24613C9.14063 7.76957 10.7148 9.49613 12.4922 9.5977C12.543 9.5977 12.543 9.5977 12.5938 9.5977C12.5938 9.5977 13.3555 9.80082 14.6758 9.49613C15.9453 9.19145 18.0273 8.37895 20.668 6.19535C21.4805 5.48441 24.1211 5.23051 24.9336 5.33207C25.0859 5.33207 25.1875 5.48441 25.2383 5.63676C25.2383 5.7891 25.1875 5.94145 25.0352 5.99223C24.4766 6.24613 23.9688 6.55082 23.7656 6.75395C23.8164 6.75395 23.8164 6.75395 23.8164 6.75395C23.918 6.75395 24.1719 6.80473 24.4258 6.90629C24.6289 6.95707 25.2383 7.1602 25.2891 7.66801C25.2891 8.07426 24.9336 8.37895 24.0703 8.73441C24.5781 8.93754 25.1875 9.24223 25.1875 9.69926C25.1875 9.95316 25.0352 10.1563 24.7813 10.3594C25.0859 10.461 25.2891 10.6133 25.3398 10.8672C25.3906 11.1719 25.2383 11.6797 23.2578 12.3399C22.9531 12.3907 21.9375 12.8985 21.3789 15.336C21.3281 15.5391 21.2266 16.8086 20.7188 18.1289C20.0078 20.0586 18.8398 21.2266 17.3672 21.5313C16.8086 21.6329 16.0469 21.6329 15.2344 21.6329ZM4.01172 7.21098C4.11328 7.21098 4.21484 7.26176 4.26563 7.31254C5.02734 8.07426 4.92578 9.44535 4.82422 11.0196C4.77344 12.2891 4.67188 13.5586 5.02734 14.6758C5.02734 14.6758 5.02734 14.6758 5.02734 14.7266C5.63672 17.6211 8.53125 20.8711 11.7813 20.8711C12.1875 20.8711 12.6953 20.8711 13.2539 20.8711C14.625 20.9219 16.3516 20.9727 17.2656 20.8204C20.2617 20.2618 20.668 15.2852 20.668 15.2344C20.668 15.2344 20.668 15.2344 20.668 15.1836C21.2773 12.4414 22.5469 11.7813 23.0547 11.6289C23.8672 11.375 24.3242 11.1719 24.4766 11.0196C24.2734 10.9688 23.8672 10.918 23.0547 10.9688C22.9023 10.9688 22.6992 10.8164 22.6992 10.6641C22.6484 10.461 22.8008 10.3086 22.9531 10.2579C24.0195 10.0039 24.3242 9.80082 24.4258 9.69926C24.2734 9.54691 23.5117 9.29301 22.8008 9.14066C22.6484 9.08988 22.5469 8.93754 22.5469 8.7852C22.5469 8.63285 22.6484 8.48051 22.8008 8.42973C24.0195 8.07426 24.375 7.82035 24.5273 7.71879C24.375 7.61723 23.9688 7.51566 23.6641 7.46488C23.6133 7.46488 23.6133 7.46488 23.6133 7.46488C23.1563 7.26176 23.0547 7.00785 23.0039 6.80473C23.0039 6.55082 23.1563 6.3477 23.4609 6.09379C22.5469 6.19535 21.4805 6.44926 21.125 6.70316C15.9961 10.9688 12.8477 10.4102 12.4414 10.3086C10.3086 10.1563 8.48047 8.12504 8.22656 6.3477C8.02344 4.87504 7.21094 3.75785 6.09375 3.45317C5.23047 3.19926 4.41797 3.45317 3.75781 4.21488C3.55469 4.46879 3.50391 4.7227 3.50391 5.02738C3.45313 5.43363 3.40234 5.99223 2.64063 6.14457C2.33594 6.19535 1.82813 6.29691 1.57422 6.50004L2.79297 6.55082C2.89453 6.55082 3.14844 6.55082 3.30078 6.75395C3.45313 6.95707 3.35156 7.21098 3.25 7.46488L3.19922 7.51566C2.58984 8.63285 2.69141 9.19145 2.84375 9.34379C2.84375 9.39457 2.89453 9.44535 2.99609 9.39457C3.25 9.29301 3.65625 8.83598 3.65625 7.56645C3.65625 7.4141 3.75781 7.31254 3.85938 7.21098C3.91016 7.21098 3.96094 7.21098 4.01172 7.21098Z" fill="#DB1516"/>
<path fill-rule="evenodd" clip-rule="evenodd" d="M6.14478 25.6953C5.99243 25.6953 5.84009 25.5938 5.78931 25.4414C5.73853 25.2383 5.84009 25.0352 6.04321 24.9844L9.39478 24.1211C9.64868 23.4609 10.5627 21.3281 10.7659 21.0234C10.8674 20.8203 11.0706 20.7695 11.2229 20.8711C11.426 20.9727 11.4768 21.1758 11.3752 21.3281C11.2229 21.582 10.4612 23.4102 9.95337 24.5781C9.95337 24.6797 9.85181 24.7305 9.75025 24.7812L6.24634 25.6953C6.19556 25.6953 6.19556 25.6953 6.14478 25.6953Z" fill="#DB1516"/>
<path fill-rule="evenodd" clip-rule="evenodd" d="M10.8164 25.9492C10.7148 25.9492 10.6133 25.8984 10.5625 25.8477L9.39453 24.6797C9.24219 24.5273 9.24219 24.3242 9.39453 24.1719C9.54688 24.0195 9.75 24.0195 9.90234 24.1719L11.0703 25.3398C11.2227 25.4922 11.2227 25.6953 11.0703 25.8477C11.0195 25.8984 10.918 25.9492 10.8164 25.9492Z" fill="#DB1516"/>
<path fill-rule="evenodd" clip-rule="evenodd" d="M19.7534 25.746C19.7027 25.746 19.6519 25.746 19.5503 25.6952L17.8745 24.7303C17.8238 24.6796 17.773 24.6288 17.7222 24.578L16.4019 21.3788C16.3511 21.1756 16.4527 20.9725 16.605 20.9217C16.8081 20.8202 17.0113 20.9217 17.062 21.0741L18.3316 24.1717L19.9058 25.0858C20.1089 25.1874 20.1597 25.3905 20.0581 25.5936C20.0074 25.6952 19.855 25.746 19.7534 25.746Z" fill="#DB1516"/>
<path fill-rule="evenodd" clip-rule="evenodd" d="M14.9292 26C14.7769 26 14.6245 25.8985 14.5738 25.7461C14.523 25.5938 14.6245 25.3907 14.7769 25.2891L17.9253 24.0703C18.1284 24.0196 18.3316 24.1211 18.4331 24.2735C18.4839 24.4766 18.3824 24.6797 18.23 24.7305L15.0816 25.9492C15.0308 26 14.98 26 14.9292 26Z" fill="#DB1516"/>
<path fill-rule="evenodd" clip-rule="evenodd" d="M13.6602 15.793C12.9492 15.793 12.2891 15.5898 11.7812 15.1836C10.4102 14.168 10.3594 12.1875 10.3594 12.0859C10.3594 11.8828 10.5117 11.7305 10.7148 11.7305C10.918 11.7305 11.0703 11.8828 11.0703 12.0859C11.0703 12.0859 11.1211 13.8125 12.1875 14.625C12.8477 15.082 13.7617 15.1836 14.8789 14.8789C15.082 14.8281 15.2852 14.9297 15.3359 15.1328C15.3867 15.3359 15.2852 15.5391 15.082 15.5898C14.5742 15.6914 14.1172 15.793 13.6602 15.793Z" fill="#DB1516"/>
<path fill-rule="evenodd" clip-rule="evenodd" d="M16.5546 16.2501C15.5897 16.2501 14.4217 15.5392 13.66 13.8126C13.5585 13.6095 13.66 13.4064 13.8124 13.3556C14.0155 13.254 14.2186 13.3556 14.2694 13.5079C15.0819 15.336 16.3006 15.7931 17.1131 15.4376C17.4686 15.2853 17.7225 14.9298 17.5702 14.4728C17.2655 13.8126 16.9608 13.3556 16.7069 13.2032C16.5546 13.1017 16.5038 12.8478 16.6053 12.6954C16.7069 12.5431 16.9608 12.4923 17.1131 12.5939C17.5194 12.8478 17.8749 13.4064 18.1796 14.1681C18.535 14.9298 18.1796 15.7423 17.3671 16.0978C17.1131 16.1993 16.8592 16.2501 16.5546 16.2501Z" fill="#DB1516"/>
<path fill-rule="evenodd" clip-rule="evenodd" d="M11.426 15.3357C11.1213 15.3357 10.8167 15.2341 10.512 15.0818C8.88696 14.2185 8.07446 11.1716 8.02368 11.0701C7.9729 10.8669 8.07446 10.6638 8.27759 10.613C8.48071 10.5623 8.68384 10.6638 8.73462 10.8669C8.73462 10.9177 9.49634 13.7615 10.8674 14.4724C11.1721 14.6248 11.5276 14.6755 11.8831 14.5232C12.0354 14.4724 12.2385 14.574 12.3401 14.7771C12.3909 14.9294 12.2893 15.1326 12.0862 15.2341C11.8831 15.2849 11.6799 15.3357 11.426 15.3357Z" fill="#DB1516"/>
<path fill-rule="evenodd" clip-rule="evenodd" d="M5.53516 6.65234C4.92578 6.65234 4.41797 6.14453 4.41797 5.48438C4.41797 4.875 4.92578 4.36719 5.53516 4.36719C6.19531 4.36719 6.70312 4.875 6.70312 5.48438C6.70312 6.14453 6.19531 6.65234 5.53516 6.65234ZM5.53516 5.07812C5.33203 5.07812 5.12891 5.28125 5.12891 5.48438C5.12891 5.73828 5.33203 5.94141 5.53516 5.94141C5.78906 5.94141 5.99219 5.73828 5.99219 5.48438C5.99219 5.28125 5.78906 5.07812 5.53516 5.07812Z" fill="#DB1516"/>
<path fill-rule="evenodd" clip-rule="evenodd" d="M7.56641 4.36719C7.46484 4.36719 7.36328 4.31641 7.3125 4.21484C7.16016 4.0625 7.21094 3.85938 7.3125 3.75781C7.51562 3.60547 7.97266 3.09766 7.97266 2.64062C7.97266 2.48828 7.87109 2.28516 7.66797 2.13281L6.14453 0.914062L5.63672 1.92969C5.58594 2.08203 5.38281 2.18359 5.23047 2.13281L4.36719 1.82812L4.46875 3.40234C4.46875 3.60547 4.31641 3.75781 4.11328 3.75781C3.91016 3.75781 3.75781 3.60547 3.75781 3.40234L3.65625 1.32031C3.65625 1.21875 3.70703 1.11719 3.80859 1.01562C3.91016 0.964844 4.01172 0.964844 4.11328 0.964844L5.12891 1.32031L5.73828 0.203125C5.78906 0.101562 5.83984 0.0507812 5.99219 0C6.09375 0 6.19531 0 6.24609 0.101562L8.125 1.625C8.58203 1.98047 8.68359 2.38672 8.68359 2.69141C8.68359 3.50391 7.87109 4.21484 7.76953 4.26562C7.71875 4.31641 7.66797 4.36719 7.56641 4.36719Z" fill="#DB1516"/>
</svg>
